<svg width="64" height="64" viewBox="0 0 64 64" fill="none" xmlns="http://www.w3.org/2000/svg"><path d="M57.824 39.914c-.24 1.063-.688 2.145-1.276 3.228 2.642-1.426 5.583-.58 5.469-.42-3.222 4.03-5.936 3.533-7.14 2.998A26.32 26.32 0 0151.883 49c2.905-.402 5.384 1.387 5.223 1.49-4.133 2.603-6.523 1.38-7.56.464a32.275 32.275 0 01-3.533 2.337c3.312.216 5.624 2.96 5.426 3.024-5.043 1.579-7.2-.497-7.996-1.726a23.984 23.984 0 01-3.983 1.37c2.845 1.317 4.193 4.373 3.995 4.373-4.797 0-6.48-2.196-7.067-3.66-1.534.426-2.792.98-3.828 1.572 3.103 1.974 4.037 4.234 4.09 4.374l-.873.382c-.013-.032-.953-2.28-4.163-4.17-2.582 1.763-3.366 3.642-3.378 3.673l-.875-.382.002-.004c.066-.156.846-2.005 3.268-3.81a17.66 17.66 0 00-3.006-1.14c-.587 1.459-2.264 3.662-7.068 3.662-.204 0 1.15-3.056 3.995-4.374a23.077 23.077 0 01-3.983-1.369c-.797 1.229-2.947 3.304-7.996 1.725-.198-.063 2.114-2.801 5.426-3.024a32.042 32.042 0 01-3.533-2.336c-1.037.916-3.426 2.139-7.56-.465-.161-.102 2.319-1.891 5.224-1.49a26.75 26.75 0 01-2.995-3.279c-1.204.535-3.917 1.025-7.14-2.999-.12-.153 2.815-1 5.457.427-.587-1.083-1.037-2.171-1.276-3.228-.072-.312-.138-.643-.204-.968-.03.007-.06.02-.09.026 0 0-.006-.02-.012-.058-1.09.058-3.42-.375-4.87-4.635-.06-.172 2.924.134 4.637 2.547a42.987 42.987 0 01-.51-5.272c-1.09-.172-3.276-1.082-3.934-5.526-.024-.172 2.665.675 3.929 3.177.048-1.853.24-3.77.617-5.705-1.043-.477-2.845-1.948-2.51-6.316.018-.172 2.348 1.267 3.073 3.916a29.32 29.32 0 011.587-4.374h-.006s.006-.013.018-.032c0-.006.006-.013.006-.019-.797-.796-2.114-2.878-.24-6.94.072-.153 1.635 1.923 1.54 4.533.736-1.12 1.659-2.253 2.677-3.355-.683-.796-1.545-2.578-.048-5.82.066-.146 1.67 2.013 1.264 4.553a57.72 57.72 0 013.3-3.03c-.575-.7-1.252-2.216 0-4.928.054-.128 1.492 1.808 1.048 4.049a81.069 81.069 0 013.145-2.464c.258-.815 1.126-2.228 4-2.267.133 0-.868 2.286-3 2.757A74.21 74.21 0 0019.197 6.1c.76.025 1.695.28 2.84.955.137.076-2.36 1.929-4.846.687a65.478 65.478 0 00-2.713 2.439c.982-.115 2.275.108 3.947 1.095.16.095-2.833 2.324-5.78.751-1.162 1.248-2.198 2.528-2.96 3.77 1.193-.465 3.014-.523 5.613 1.018.186.108-3.216 2.642-6.6.917a28.3 28.3 0 00-1.516 4.202c.97-.828 2.618-1.483 5.403-1.082.21.032-2.133 3.794-5.948 3.412a33.304 33.304 0 00-.587 5.291c.785-1.012 2.234-2 4.93-2.298.21-.026-1.21 4.144-4.93 4.788.054 1.591.198 3.12.4 4.552.624-1.102 1.87-2.273 4.326-3.069.198-.064-.437 4.221-3.881 5.647.066.35.143.694.215 1.025.27 1.172.785 2.382 1.498 3.579.012-1.611.736-3.846 3.677-6.234.198-.165 1.216 5.12-2.342 8.175a25.662 25.662 0 003.402 3.585c-.503-1.522-.533-3.903 1.552-7.233.143-.223 2.76 4.52.203 8.665a30.673 30.673 0 003.576 2.318c-.814-1.464-1.305-3.871-.042-7.685.09-.273 3.947 3.865 2.372 8.844 1.58.694 3.187 1.216 4.762 1.509-1.294-1.057-2.666-3.228-2.444-7.679.012-.292 4.87 2.56 4.618 7.87h.024s-.012.12-.042.312c1.438.4 2.642.91 3.666 1.458 1.186-.739 2.665-1.44 4.534-1.961a2.55 2.55 0 01-.042-.312h.024c-.246-5.304 4.606-8.163 4.618-7.87.222 4.45-1.15 6.616-2.444 7.679 1.575-.3 3.18-.815 4.762-1.51-1.57-4.972 2.282-9.117 2.372-8.843 1.264 3.814.773 6.22-.042 7.685a30.66 30.66 0 003.576-2.318c-2.558-4.144.06-8.888.203-8.665 2.085 3.33 2.055 5.711 1.552 7.233a25.648 25.648 0 003.402-3.584c-3.558-3.057-2.54-8.341-2.342-8.176 2.94 2.388 3.665 4.616 3.677 6.227.713-1.203 1.234-2.406 1.498-3.578.072-.331.144-.675.215-1.025-3.444-1.42-4.078-5.711-3.88-5.647 2.449.796 3.695 1.967 4.324 3.069.215-1.51.349-3.03.4-4.553-3.72-.636-5.14-4.813-4.93-4.788 2.69.3 4.146 1.287 4.93 2.299a34.032 34.032 0 00-.586-5.291c-3.81.382-6.157-3.38-5.948-3.413 2.78-.4 4.427.255 5.403 1.083a28.052 28.052 0 00-1.515-4.202c-3.38 1.725-6.787-.809-6.6-.917 2.599-1.541 4.42-1.484 5.61-1.019-.76-1.248-1.796-2.521-2.958-3.769-2.947 1.572-5.941-.656-5.78-.751 1.672-.987 2.965-1.21 3.948-1.095a61.71 61.71 0 00-2.714-2.439c-2.485 1.248-4.983-.605-4.845-.688 1.144-.674 2.078-.93 2.839-.955a90.266 90.266 0 00-2.396-1.833C40.329 3.286 39.322 1 39.454 1c2.875.038 3.738 1.452 4 2.267.85.636 1.948 1.477 3.146 2.464-.443-2.242.988-4.177 1.048-4.05 1.252 2.713.575 4.228 0 4.928 1.09.93 2.222 1.955 3.3 3.03-.413-2.54 1.198-4.692 1.264-4.552 1.497 3.248.635 5.024-.048 5.82 1.018 1.101 1.94 2.235 2.678 3.355-.096-2.604 1.467-4.686 1.539-4.533 1.874 4.062.557 6.144-.24 6.94 0 .006.006.012.006.019.012.019.018.032.018.032h-.006a29.35 29.35 0 011.587 4.374c.725-2.649 3.06-4.088 3.073-3.916.335 4.361-1.473 5.832-2.51 6.316.378 1.935.57 3.852.617 5.705 1.264-2.509 3.953-3.356 3.93-3.178-.66 4.445-2.846 5.355-3.936 5.527a44.216 44.216 0 01-.51 5.272c1.666-2.407 4.649-2.713 4.589-2.54-1.45 4.259-3.78 4.692-4.87 4.634a.456.456 0 01-.011.058c-.03-.007-.06-.02-.09-.026-.063.324-.131.646-.204.968v0z" stroke="#555" stroke-width=".5"></path></svg>