<svg version="1.1" xmlns="http://www.w3.org/2000/svg" width="64" height="64" viewBox="0 0 64 64" role="img" aria-label="card mastercard"><path fill="#555" d="M61.5 20.75v-4.029c0-2.334-1.837-4.221-4.096-4.221H6.595c-2.259 0-4.096 1.887-4.096 4.221v30.557c0 2.334 1.837 4.221 4.096 4.221h50.809c2.259 0 4.096-1.887 4.096-4.221V21.249H3a.25.25 0 010-.5h58.5zm1-4.029v30.557c0 2.881-2.278 5.221-5.096 5.221H6.595c-2.817 0-5.096-2.34-5.096-5.221V16.721c0-2.881 2.278-5.221 5.096-5.221h50.809c2.817 0 5.096 2.341 5.096 5.221zM6.25 47a.25.25 0 01-.5 0V25a.25.25 0 01.5 0v22zM46 29.7c2.383 0 4.3 1.946 4.3 4.332s-1.917 4.332-4.3 4.332c-2.384 0-4.3-1.946-4.3-4.332S43.616 29.7 46 29.7zm0 .541c-2.035 0-3.7 1.69-3.7 3.79s1.665 3.791 3.7 3.791 3.7-1.69 3.7-3.791-1.665-3.791-3.7-3.791zm5-.541c2.383 0 4.3 1.946 4.3 4.332s-1.917 4.332-4.3 4.332-4.3-1.946-4.3-4.332S48.617 29.7 51 29.7zm0 .541c-2.035 0-3.7 1.69-3.7 3.79s1.665 3.791 3.7 3.791 3.7-1.69 3.7-3.791-1.665-3.791-3.7-3.791z"></path></svg>