<svg version="1.1" xmlns="http://www.w3.org/2000/svg" width="64" height="64" viewBox="0 0 64 64" role="img" aria-label="money loan service"><path fill="#555" d="M32.401 31.247c-1.258-.044-2.211-.532-2.889-1.318a3.951 3.951 0 01-.587-.906 2.87 2.87 0 01-.166-.426l.482-.131c.017.064.061.186.136.345.127.27.296.54.513.791.62.718 1.498 1.148 2.699 1.148 2.101 0 3.16-1.007 3.16-2.692 0-1.052-.75-1.735-2.202-2.294-.31-.119-.486-.178-1.119-.382-2.302-.74-3.175-1.528-3.175-2.908 0-1.405.935-2.401 2.497-2.659v-1.816h.5v1.76a5.4 5.4 0 01.34-.01c1.396 0 2.32.518 2.833 1.381a2.994 2.994 0 01.409 1.386h-.5a2.47 2.47 0 00-.339-1.131c-.422-.71-1.182-1.136-2.403-1.136-1.8 0-2.836.88-2.836 2.225 0 1.111.71 1.751 2.828 2.432.643.207.823.267 1.146.391 1.624.625 2.523 1.443 2.523 2.76 0 1.879-1.176 3.081-3.349 3.184v1.884h-.5v-1.88zM6.25 33.256V37a.25.25 0 01-.5 0V15a.25.25 0 01.5 0v5.744c2.61-.12 4.5-2.117 4.5-4.744a.25.25 0 01.5 0c0 2.902-2.112 5.123-5 5.245v11.51c2.888.121 5 2.343 5 5.245a.25.25 0 01-.5 0c0-2.627-1.89-4.624-4.5-4.744zm26.015-20.444c6.498-.672 11.985 4.192 11.985 10.63 0 6.39-5.278 12.069-11.784 12.742-6.503.674-11.716-3.929-11.716-10.362 0-6.496 5.113-12.348 11.515-13.011zm.052.497c-6.144.636-11.067 6.271-11.067 12.513 0 6.133 4.954 10.508 11.164 9.864 6.255-.647 11.336-6.114 11.336-12.245 0-6.139-5.229-10.775-11.433-10.133zM2.5 9.846v29.543c4.545 2.311 17.557 3.107 27.743.384a.5.5 0 11.258.966c-10.619 2.838-24.203 1.94-28.746-.615a.501.501 0 01-.255-.436V9.115a.5.5 0 01.688-.463c.178.072.36.144.546.214 7.012 2.637 19.38 3.379 29.423-.221 12.19-4.37 26.483-4.054 30.216.138.081.092.127.21.127.332v29.936a.5.5 0 01-.684.465c-1.639-.65-3.79-1.191-6.233-1.539a.5.5 0 11.142-.99c2.195.313 4.169.779 5.776 1.344V9.312C57.909 5.639 44.2 5.39 32.496 9.586c-10.227 3.666-22.752 2.94-29.995.26zm54.467 33.402a.25.25 0 11.067-.495c1.893.255 3.603.601 5.035 1.007a.25.25 0 11-.137.481c-1.408-.399-3.095-.74-4.965-.993zM1.891 45.225a.25.25 0 11.219-.449c4.112 2.002 17.327 2.837 27.842.752a.25.25 0 11.097.491c-10.613 2.105-23.936 1.263-28.158-.792zm57.062 1.02a.25.25 0 11.095-.491c1.104.212 2.121.458 3.024.726a.25.25 0 11-.143.479 31.277 31.277 0 00-2.976-.715zM1.888 48.223a.25.25 0 01.225-.447c3.959 1.986 16.681 2.828 26.839.783a.25.25 0 11.098.49c-10.259 2.065-23.09 1.217-27.161-.826zM58 15.75a.25.25 0 010 .5c-3.016 0-5.25-2.265-5.25-5.25a.25.25 0 01.5 0c0 2.711 2.012 4.75 4.75 4.75zm0 14a.25.25 0 010 .5c-2.738 0-4.75 2.039-4.75 4.75a.25.25 0 01-.5 0c0-2.985 2.234-5.25 5.25-5.25zM43.782 34.5c6.903 0 12.718 5.785 12.718 12.655 0 6.843-5.631 12.345-12.562 12.345-6.909 0-12.438-5.481-12.438-12.345 0-6.949 5.454-12.655 12.282-12.655zm0 1c-6.265 0-11.282 5.248-11.282 11.655 0 6.31 5.08 11.345 11.438 11.345 6.384 0 11.562-5.06 11.562-11.345 0-6.316-5.366-11.655-11.718-11.655zM44 46.75a1.25 1.25 0 110 2.5 1.25 1.25 0 010-2.5zm0 .5a.75.75 0 100 1.5.75.75 0 000-1.5zm-5.439-3.9l.354-.354 4 4-.354.354-4-4zm6.616 3.827l-.354-.354 6-6 .354.354-6 6z"></path></svg>