<svg version="1.1" xmlns="http://www.w3.org/2000/svg" width="64" height="64" viewBox="0 0 64 64" role="img" aria-label="added value high interest rates"><path fill="#555" d="M23.75 24.248a8.43 8.43 0 01-.16.002c-1.351 0-2.366-.496-3.078-1.321a3.951 3.951 0 01-.587-.906 2.87 2.87 0 01-.166-.426l.482-.131c.017.064.061.186.136.345.127.27.296.54.513.791.62.718 1.498 1.148 2.699 1.148 2.101 0 3.16-1.007 3.16-2.691 0-1.052-.75-1.736-2.202-2.294a18.66 18.66 0 00-1.119-.382c-2.302-.74-3.175-1.528-3.175-2.908 0-1.641 1.276-2.725 3.336-2.725l.16.002V11h.5v1.793c1.033.14 1.745.619 2.172 1.338a2.994 2.994 0 01.41 1.386h-.5a2.47 2.47 0 00-.339-1.131c-.422-.71-1.182-1.136-2.403-1.136-1.8 0-2.836.88-2.836 2.225 0 1.111.71 1.751 2.828 2.432.641.206.823.267 1.146.391 1.624.625 2.523 1.443 2.523 2.761 0 1.775-1.051 2.946-3 3.157V26h-.5v-1.752zm-3.545 16.274l2.999-.007.662-.001c3.914-.009 6.502-.014 7.146-.014 1.911 0 3.451 1.481 3.487 3.519.034 1.993-1.648 3.488-3.521 3.488l-5.02-.001h-.64l-3.181-.001-1.397-.001a.5.5 0 010-1l1.397.001 3.181.001h.64l5.02.001c1.342 0 2.545-1.069 2.521-2.471-.026-1.488-1.117-2.537-2.487-2.537l-2.762.004v2.496a.25.25 0 01-.5 0v-2.495l-3.882.008-.662.001-4.6.01-2.039.005c-3.959 0-6.936.917-9.98 3.805L2.344 49.36a.5.5 0 11-.689-.726l4.243-4.027c3.254-3.088 6.475-4.08 10.667-4.08l2.038-.005h.167l15.791-15.427a.5.5 0 01.736.041l3.897 4.76 14.423-14.883a.5.5 0 01.714-.004L61.5 22.23V7.497H47.192l4.363 4.208a.5.5 0 11-.694.72l-5.255-5.068a.5.5 0 01.347-.86H62a.5.5 0 01.5.5v16.446a.5.5 0 01-.855.352l-7.664-7.72-14.458 14.919a.5.5 0 01-.746-.031l-3.906-4.772-14.665 14.327zm22.363 3.677a.5.5 0 01.145-.291l9.571-9.433c1.362-1.341 3.559-1.312 5.103.16 1.509 1.438 1.432 3.739.091 5.061L44.107 52.874c-2.666 2.628-5.395 3.687-9.251 3.687l-13.153.047-.447-.001c-1.839-.005-2.859.02-4.061.136-2.29.221-3.954.737-4.843 1.612a.5.5 0 01-.702-.712c1.097-1.08 2.949-1.654 5.449-1.895 1.245-.12 2.289-.146 4.16-.141l.443.001 13.153-.047c3.601 0 6.077-.961 8.551-3.399l13.371-13.178c.952-.939 1.007-2.59-.079-3.625-1.16-1.105-2.742-1.127-3.712-.172l-9.432 9.296a.5.5 0 01-.196.371c-1.361 1.039-2.099 1.505-2.87 1.776-.813.286-1.378.327-3.413.326h-1.02a.5.5 0 010-1h1.02c1.912.001 2.416-.036 3.081-.27.613-.216 1.248-.608 2.413-1.489zm-5.07-26.535a.5.5 0 11-.996.082 11.764 11.764 0 00-.45-2.401c-1.633-5.486-7.043-9.273-12.753-8.806-6.526.533-11.304 6.455-10.755 13.163.454 5.549 4.599 9.959 10.011 10.804a.5.5 0 01-.154.988c-5.866-.915-10.361-5.698-10.853-11.71-.592-7.248 4.583-13.662 11.671-14.241 6.186-.506 12.027 3.582 13.793 9.517.252.845.416 1.716.489 2.604z"></path></svg>