<svg version="1.1" xmlns="http://www.w3.org/2000/svg" width="64" height="64" viewBox="0 0 64 64" role="img" aria-label="added value grow"><path fill="#555" d="M50.056 27.289l.044.184c.056.243.112.518.163.823.305 1.792.349 3.679-.04 5.459-1.035 4.737-4.791 7.323-11.915 6.639a.346.346 0 01-.031.022l-3 2a.5.5 0 11-.554-.832l2.065-1.376-.011-.002-.066-.355a11.21 11.21 0 01-.107-.776c-.203-1.864-.144-3.897.363-5.823 1.337-5.078 5.342-7.693 12.658-6.45l.186.032.02-.018a.25.25 0 11.339.367l-.114.105zM37.581 38.804l.017.164c.014.13.028.246.041.346 7.141.898 10.648-1.386 11.607-5.773.358-1.637.317-3.401.031-5.078a16.674 16.674 0 00-.071-.39L37.581 38.804zm-.051-.633l11.346-10.474c-6.423-.93-9.771 1.363-10.942 5.81-.401 1.522-.501 3.136-.404 4.663zM29.75 21.18a3.717 3.717 0 01-2.238-1.251 3.951 3.951 0 01-.587-.906 2.87 2.87 0 01-.166-.426l.482-.131c.017.064.061.186.136.345.127.27.296.54.513.791.62.718 1.498 1.148 2.699 1.148 2.101 0 3.16-1.007 3.16-2.691 0-1.052-.75-1.736-2.202-2.294a17.95 17.95 0 00-1.119-.382c-2.302-.74-3.175-1.528-3.175-2.908 0-1.405.935-2.401 2.497-2.659V8h.5v1.76a5.4 5.4 0 01.34-.01c1.396 0 2.32.518 2.833 1.381a2.994 2.994 0 01.409 1.386h-.5a2.47 2.47 0 00-.339-1.131c-.422-.71-1.182-1.136-2.403-1.136-1.8 0-2.836.88-2.836 2.225 0 1.111.71 1.751 2.828 2.432.641.206.823.267 1.146.391 1.624.625 2.523 1.443 2.523 2.761 0 1.966-1.289 3.191-3.66 3.191a5.39 5.39 0 01-.34-.011V23h-.5v-1.82zm-16.651 6.481l10.069 9.154a.25.25 0 11-.336.37l-10.36-9.418c-.134.025-.268.053-.404.082a11.53 11.53 0 00-.231.82c-.387 1.595-.478 3.257-.095 4.792.982 3.939 4.832 6.175 12.697 5.779l.205-.01 2.689 2.398a.5.5 0 11-.666.746l-2.383-2.125c-8.169.367-12.41-2.128-13.512-6.545-.428-1.715-.328-3.531.093-5.27.08-.329.166-.629.252-.893a6.65 6.65 0 01.12-.342l.097-.247.259-.058.21-.045.012-.015a.25.25 0 01.308-.05c4.467-.858 7.891.265 10.22 2.896 1.822 2.059 2.83 4.984 2.83 7.315a.5.5 0 01-1 0c0-2.096-.926-4.785-2.578-6.652-1.954-2.208-4.761-3.232-8.496-2.68zM30.5 43.505c1.814-.004 3.005-.005 3.419-.005 1.959 0 3.543 1.477 3.581 3.519.035 1.997-1.695 3.489-3.616 3.489l-10.558-.003a.5.5 0 010-1l10.558.003c1.395 0 2.64-1.073 2.616-2.471-.027-1.485-1.156-2.537-2.581-2.537l-3.669.006V48a.25.25 0 01-.5 0v-3.493l-3.199.007-.683.001-4.744.01-2.102.005c-4.089 0-7.166.919-10.308 3.811l-4.376 4.027a.5.5 0 01-.678-.735l4.376-4.027c3.352-3.085 6.667-4.075 10.984-4.075l2.101-.005 4.744-.01.683-.001 2.951-.006V31.001a.5.5 0 011 0v12.505zm13.8 4.52a.499.499 0 01.092-.12l.15-.145.089-.098a.508.508 0 01.098-.083l9.442-9.108c1.386-1.337 3.619-1.307 5.192.16 1.542 1.439 1.464 3.746.093 5.069L45.795 56.878c-2.722 2.626-5.506 3.683-9.441 3.683l-13.439.047-.457-.001c-1.88-.005-2.923.02-4.152.136-2.343.222-4.048.738-4.958 1.616a.5.5 0 11-.694-.72c1.118-1.078 3.007-1.65 5.558-1.892 1.271-.12 2.338-.145 4.248-.141l.453.001 13.439-.047c3.685 0 6.218-.962 8.748-3.403l13.661-13.178c.972-.938 1.028-2.583-.081-3.618-1.191-1.111-2.819-1.132-3.815-.171l-9.606 9.266c-2.117 2.317-1.787 1.966-2.319 2.342-.785.555-1.531.7-3.226.7H39a.5.5 0 010-1h.714c1.506 0 2.074-.111 2.649-.517.422-.298.184-.039 1.938-1.959zM29.273 1.5C36.452 1.5 42.5 7.517 42.5 14.661c0 7.116-5.856 12.839-13.065 12.839-7.185 0-12.935-5.7-12.935-12.839C16.5 7.433 22.172 1.5 29.273 1.5zm0 1C22.735 2.5 17.5 7.976 17.5 14.661c0 6.585 5.301 11.839 11.935 11.839 6.661 0 12.065-5.28 12.065-11.839C41.5 8.07 35.901 2.5 29.273 2.5z"></path></svg>