<svg version="1.1" xmlns="http://www.w3.org/2000/svg" width="64" height="64" viewBox="0 0 64 64" role="img" aria-label="building bank"><path fill="#555" d="M13 21.25a.25.25 0 010-.5h36a.25.25 0 010 .5H13zM7 25.5a.5.5 0 010-1h49a.5.5 0 010 1H7zM6.5 30a.5.5 0 011 0v22a.5.5 0 01-1 0V30zm13 0a.5.5 0 011 0v22a.5.5 0 01-1 0V30zm12 0a.5.5 0 011 0v22a.5.5 0 01-1 0V30zm12 0a.5.5 0 011 0v22a.5.5 0 01-1 0V30zm13 0a.5.5 0 011 0v22a.5.5 0 01-1 0V30zM6 56.25a.25.25 0 010-.5h51a.25.25 0 010 .5H6zM2 61.5a.5.5 0 010-1h60a.5.5 0 010 1H2zm3.286-40.09a.5.5 0 11-.571-.821l22.83-15.898a16.624 16.624 0 011.558-1.078c.476-.289.94-.534 1.383-.72.602-.253 1.148-.393 1.634-.393.499 0 1.066.145 1.696.406.432.179.884.41 1.348.681a17.146 17.146 0 011.577 1.043L59.29 20.591a.5.5 0 01-.578.816L36.148 5.435a16.174 16.174 0 00-1.487-.985 10.28 10.28 0 00-1.228-.621c-.519-.216-.967-.33-1.313-.33-.332 0-.757.109-1.246.315a9.85 9.85 0 00-1.252.653 15.243 15.243 0 00-1.478 1.024L5.286 21.41zm30.089-8.91a2.875 2.875 0 11-5.75 0 2.875 2.875 0 015.75 0zm-.75 0a2.124 2.124 0 10-4.249-.001 2.124 2.124 0 004.249.001z"></path></svg>