<svg xmlns="http://www.w3.org/2000/svg" width="35.278" height="33.073" viewBox="2 2 35.278 33.073">
                                        <path fill="#cccccc" d="M15.94 28.88C8.797 28.88 3 23.082 3 15.94 3 8.798 8.901 3 15.94 3s12.94 5.798 12.94 12.94c0 7.142-5.798 12.94-12.94 12.94zm0-23.914c-6.004 0-10.87 4.866-10.87 10.974a10.915 10.915 0 0 0 10.974 10.974c6.107 0 10.87-4.97 10.87-10.974 0-6.004-4.865-10.974-10.974-10.974zm11.389 21.326l8.281 7.246m.517-.619l-8.281-7.248-1.035 1.139 8.281 7.246 1.035-1.137z">
                                        </path>
                                    </svg>