<svg width="24" height="24" viewBox="0 0 24 24" fill="none" xmlns="http://www.w3.org/2000/svg">
                                                            <path fillrule="evenodd" cliprule="evenodd" d="M11.8126 1.875C12.2842 1.875 12.7058 2.16923 12.8685 2.61195L14.4181 6.82877L18.8023 7.03276C19.2679 7.05442 19.672 7.36095 19.8182 7.8035C19.9645 8.24606 19.8227 8.73298 19.4617 9.02783L16.0123 11.8453L17.1865 16.2076C17.3086 16.661 17.1361 17.1426 16.754 17.4155C16.3719 17.6884 15.8604 17.6953 15.4711 17.4327L11.8126 14.9651L8.15401 17.4327C7.76471 17.6953 7.25326 17.6884 6.87112 17.4155C6.48899 17.1426 6.31656 16.661 6.43861 16.2076L7.6128 11.8453L4.16338 9.02783C3.8024 8.73298 3.66062 8.24606 3.80689 7.8035C3.95315 7.36095 4.35717 7.05442 4.82277 7.03276L9.20698 6.82877L10.7566 2.61195C10.9193 2.16923 11.3409 1.875 11.8126 1.875ZM11.8126 6.2615L11.0613 8.30589C10.9052 8.73069 10.5097 9.02059 10.0576 9.04163L7.8621 9.14378L9.60005 10.5633C9.9432 10.8436 10.0899 11.2992 9.97472 11.727L9.39468 13.8819L11.1835 12.6754C11.5637 12.419 12.0614 12.419 12.4416 12.6754L14.2304 13.8819L13.6504 11.727C13.5352 11.2992 13.6819 10.8436 14.0251 10.5633L15.763 9.14378L13.5675 9.04163C13.1154 9.02059 12.72 8.73069 12.5638 8.30589L11.8126 6.2615Z" fill="#0F7AED"></path>
                                                            <path fillrule="evenodd" cliprule="evenodd" d="M12 21.75C11.1716 21.75 10.5 21.0784 10.5 20.25C10.5 19.4216 11.1716 18.75 12 18.75C12.8284 18.75 13.5 19.4216 13.5 20.25C13.5 21.0784 12.8284 21.75 12 21.75Z" fill="#38D200"></path>
                                                        </svg>