<svg aria-hidden="true" width="16" height="16" viewBox="0 0 16 16" xmlns="http://www.w3.org/2000/svg">
                                    <path d="M6.34 10.903A4.567 4.567 0 0 1 1.778 6.34 4.568 4.568 0 0 1 6.34 1.777a4.569 4.569 0 0 1 4.564 4.564 4.567 4.567 0 0 1-4.564 4.562m8.73 2.721l-3.596-3.592a6.283 6.283 0 0 0 1.208-3.691A6.348 6.348 0 0 0 6.34 0 6.348 6.348 0 0 0 0 6.34a6.347 6.347 0 0 0 6.34 6.34c1.476 0 2.816-.526 3.895-1.374l3.577 3.575a.887.887 0 0 0 1.257 0 .89.89 0 0 0 0-1.257" fill="#221F20"></path>
                                </svg>