<svg width="23" height="23" viewBox="0 0 23 23" fill="none" xmlns="http://www.w3.org/2000/svg"><path d="M21.025 19.59c-2.428-3.24-4.86-6.483-7.289-9.727l-1.062 1.128c2.376 3.173 4.755 6.342 7.135 9.51.044.058.088.115.132.177H16.87l-5.84-7.933-1.062 1.133c1.402 1.904 2.803 3.808 4.204 5.707l1.93 2.618H23c-.666-.868-1.318-1.741-1.975-2.614zM3.301 2.251h2.816l2.37 3.165c1.076 1.432 2.151 2.869 3.226 4.3.353-.378.706-.753 1.063-1.127C10.81 5.972 8.845 3.35 6.878.728H.277c1.86 2.525 3.715 5.05 5.575 7.575 1.058 1.432 2.111 2.86 3.164 4.292.353-.379.705-.753 1.063-1.132L3.3 2.253z" fill="#434343"></path><path d="M11.03 12.75c-.356.379-.709.758-1.061 1.132-1.785 1.904-3.574 3.808-5.36 5.707-.819.873-1.634 1.745-2.454 2.618H0l2.455-2.618 3.41-3.635c1.054-1.12 2.103-2.24 3.156-3.363.353-.379.705-.753 1.062-1.132l.948 1.29zM22.313.723c-2.86 3.045-5.72 6.095-8.576 9.14l-1.062 1.128-.961-1.282c.352-.379.705-.754 1.062-1.128 2.459-2.618 4.914-5.24 7.373-7.862h2.164v.004z" fill="#434343"></path><path d="M21.025 19.59c-2.428-3.24-4.86-6.483-7.289-9.727l-1.062 1.128c2.376 3.173 4.755 6.342 7.135 9.51.044.058.088.115.132.177H16.87l-5.84-7.933-1.062 1.133c1.402 1.904 2.803 3.808 4.204 5.707l1.93 2.618H23c-.666-.868-1.318-1.741-1.975-2.614zM3.301 2.251h2.816l2.37 3.165c1.076 1.432 2.151 2.869 3.226 4.3.353-.378.706-.753 1.063-1.127C10.81 5.972 8.845 3.35 6.878.728H.277c1.86 2.525 3.715 5.05 5.575 7.575 1.058 1.432 2.111 2.86 3.164 4.292.353-.379.705-.753 1.063-1.132L3.3 2.253z" fill="#434343"></path><path d="M11.03 12.75c-.356.379-.709.758-1.061 1.132-1.785 1.904-3.574 3.808-5.36 5.707-.819.873-1.634 1.745-2.454 2.618H0l2.455-2.618 3.41-3.635c1.054-1.12 2.103-2.24 3.156-3.363.353-.379.705-.753 1.062-1.132l.948 1.29zM22.313.723c-2.86 3.045-5.72 6.095-8.576 9.14l-1.062 1.128-.961-1.282c.352-.379.705-.754 1.062-1.128 2.459-2.618 4.914-5.24 7.373-7.862h2.164v.004z" fill="#434343"></path></svg>