<svg width="24" height="24" viewBox="0 0 24 24" fill="none" xmlns="http://www.w3.org/2000/svg">
                                                                <path d="M3.75 15.75H19.875C19.875 17.4069 18.5319 18.75 16.875 18.75H6.75C5.09315 18.75 3.75 17.4069 3.75 15.75Z" fill="#38D200"></path>
                                                                <path d="M11.1941 5.25H7.5C6.25736 5.25 5.25 6.25736 5.25 7.5V14.25H18.75V10.3357L17.8036 11.2443C16.9072 12.1049 15.4828 12.0758 14.6223 11.1794C14.1522 10.6897 13.9475 10.0424 14.0048 9.41559L12.375 9.41558C11.1324 9.41558 10.125 8.40822 10.125 7.16558C10.125 6.35604 10.5525 5.64636 11.1941 5.25Z" fill="#0F7AED"></path>
                                                                <path fillrule="evenodd" cliprule="evenodd" d="M15.0749 3.7045C15.5142 3.26517 16.2266 3.26517 16.6659 3.7045L20.113 7.15165L19.2238 8.0409L16.6659 10.5988C16.2266 11.0381 15.5142 11.0381 15.0749 10.5988C14.6356 10.1595 14.6356 9.44715 15.0749 9.00781L15.7123 8.3704L12.375 8.3704C11.7537 8.3704 11.25 7.86672 11.25 7.2454C11.25 6.62408 11.7537 6.1204 12.375 6.1204L15.8998 6.1204L15.0749 5.2955C14.6356 4.85616 14.6356 4.14384 15.0749 3.7045Z" fill="#38D200"></path>
                                                            </svg>