<svg width="21" height="20" viewBox="0 0 21 20" version="1.1" xmlns="http://www.w3.org/2000/svg" role="img" aria-label="linkedin"><path d="M20.011 12.444V20h-3.953v-7.049c0-1.771-.794-2.98-2.393-2.98-1.22 0-2.307.814-2.627 1.603-.117.282-.146.673-.146 1.068V20H6.938s.06-11.735 0-12.972h4.107v1.664l-.029.042h.029v-.042c.587-.896 1.843-2.177 4.189-2.177 2.906-.001 4.777 1.882 4.777 5.929zM1.18 20h3.849V7.028H1.18V20zM3.094 0c1.501 0 2.719 1.042 2.719 2.328 0 1.286-1.217 2.328-2.719 2.328-1.502 0-2.719-1.042-2.719-2.328C.375 1.042 1.592 0 3.094 0z" fill="#434343" stroke="none" stroke-width="1" fill-rule="evenodd"></path></svg>