<svg version="1.1" xmlns="http://www.w3.org/2000/svg" width="64" height="64" viewBox="0 0 64 64" role="img" aria-label="device mobile phone"><path fill="#555" d="M15 11h34.69c.171 0 .31.112.31.25s-.139.25-.31.25H15V51h34.69c.171 0 .31.112.31.25s-.139.25-.31.25H15v5.674C15 59.287 16.735 61 18.875 61h27.25C48.265 61 50 59.287 50 57.174V6.825c0-2.112-1.735-3.826-3.875-3.826h-27.25C16.735 2.999 15 4.712 15 6.825v4.174zm36-3.98v49.959c0 2.773-2.264 5.02-5.057 5.02H19.056c-2.793 0-5.057-2.248-5.057-5.02V7.02c0-2.772 2.264-5.02 5.057-5.02h26.887C48.735 2 51 4.248 51 7.02zM32 54a2 2 0 11-.001 4.001A2 2 0 0132 54zm0 1a1 1 0 100 2 1 1 0 000-2zM19 15.309c0-.171.112-.309.25-.309s.25.138.25.309v33.382c0 .171-.112.309-.25.309s-.25-.138-.25-.309V15.309z"></path></svg>