<svg version="1.1" xmlns="http://www.w3.org/2000/svg" width="64" height="64" viewBox="0 0 64 64" role="img" aria-label="misc transactional history"><path fill="#555" d="M17.367 27.168V5.5h37.75l7.382 7.468v40.92c0 3.334-2.703 5.612-6.252 5.612H7.75c-3.549 0-6.251-2.278-6.251-5.612V32.394c0-3.623 1.378-5.547 4.513-5.611l.163-.002v.006c.744.029 1.387.156 1.935.38h9.256zm0 1H9.516c.807.943 1.173 2.359 1.173 4.226v8.736l6.678.033V28.168zm1-.84a.5.5 0 010 .678v25.881c0 2.011-.983 3.638-2.543 4.612h40.423c3.031 0 5.252-1.872 5.252-4.612V13.499h-7v-7H18.366v20.828zm-11.849.473a6.331 6.331 0 00-.423-.019C3.533 27.811 2.5 29.24 2.5 32.394v21.494c0 2.741 2.221 4.612 5.251 4.612h4.364c3.031 0 5.252-1.872 5.252-4.612V42.163l-7.678-.038v-9.731c0-2.241-.521-3.61-1.742-4.226H7a.5.5 0 01-.482-.367zM55.5 7.309V12.5h5.132L55.5 7.309zM25 47.25v-.5h18v.5H25zm0-7v-.5h18v.5H25zm0-6v-.5h18v.5H25zm0-5v-.5h18v.5H25zm0 24v-.5h18v.5H25zm24-6v-.5h8v.5h-8zm0-7v-.5h8v.5h-8zm0-6v-.5h8v.5h-8zm0-5v-.5h8v.5h-8zm0 24v-.5h8v.5h-8zM25.229 15.701a18.931 18.931 0 01-.024.704h.023c.157-.224.343-.399.56-.525s.479-.188.787-.188c.444 0 .791.117 1.041.352s.376.574.376 1.018v2.936h-.72v-2.85c0-.271-.082-.48-.247-.626s-.39-.219-.677-.219c-.162 0-.312.027-.45.082s-.257.132-.356.231c-.099.099-.176.219-.231.36s-.082.295-.082.462v2.561h-.728v-5.826h.728V15.7zm3.728-1.527h.76v.846h-.76v-.846zm.015 1.621h.728V20h-.728v-4.205zm3.344 4.33c-.585 0-1.036-.127-1.355-.38s-.493-.594-.525-1.022h.736c.021.151.065.279.133.384s.153.188.255.251c.102.063.218.108.348.137s.271.043.423.043c.334 0 .575-.064.724-.192s.223-.286.223-.474c0-.23-.09-.39-.27-.482s-.455-.174-.826-.247c-.204-.042-.401-.089-.591-.141s-.358-.123-.501-.211c-.144-.089-.258-.206-.345-.352s-.129-.334-.129-.564c0-.36.134-.646.403-.857s.649-.317 1.139-.317c.527 0 .927.112 1.198.337s.431.519.478.885h-.728c-.031-.219-.124-.386-.278-.501s-.382-.172-.685-.172c-.287 0-.495.057-.622.172s-.192.253-.192.415c0 .11.025.2.074.27s.123.129.219.176c.097.047.214.086.352.117s.296.065.474.102c.209.042.407.089.595.141s.354.125.497.219c.144.094.257.218.341.372s.125.354.125.599a1.126 1.126 0 01-.473.967c-.149.107-.328.188-.536.243s-.436.082-.681.082zm2.059-4.33h.658v-1.323h.72v1.323h.869v.564h-.869v2.654c0 .151.038.255.114.309s.181.082.317.082c.063 0 .129-.006.2-.02s.127-.025.168-.035h.023v.611c-.198.047-.394.07-.587.07-.282-.005-.512-.072-.689-.2s-.266-.346-.266-.654v-2.819h-.658v-.564zm4.761 4.322c-.318 0-.604-.057-.857-.172s-.468-.273-.646-.474c-.178-.201-.315-.436-.411-.705s-.145-.557-.145-.865c0-.303.048-.589.145-.857s.234-.504.411-.705c.178-.201.393-.359.646-.474s.539-.172.857-.172c.318 0 .603.057.853.172s.465.273.642.474c.178.201.313.436.407.705s.141.555.141.857c0 .308-.047.596-.141.865s-.23.504-.407.705c-.178.201-.392.359-.642.474s-.535.172-.853.172zm-.008-.595c.214 0 .403-.042.568-.125s.301-.198.411-.345c.11-.146.192-.317.247-.513s.082-.409.082-.638c0-.224-.027-.436-.082-.634s-.137-.372-.247-.521c-.11-.149-.247-.265-.411-.348s-.354-.125-.568-.125c-.214 0-.403.042-.568.125s-.301.2-.411.348c-.11.149-.192.322-.247.521s-.082.41-.082.634c0 .23.027.442.082.638s.137.367.247.513c.11.146.247.261.411.345s.354.125.568.125zm3.547-2.967h.023c.13-.245.3-.442.509-.591a1.234 1.234 0 01.881-.211c.039.008.08.02.121.035v.689h-.023c-.052-.016-.099-.026-.141-.031s-.094-.008-.157-.008a1.204 1.204 0 00-.846.345c-.11.11-.197.243-.262.399s-.098.334-.098.532V20h-.728v-4.205h.72v.76zm2.764 4.909c-.12 0-.239-.008-.356-.023s-.205-.037-.262-.063v-.626h.031c.042.026.103.046.184.059s.166.02.255.02c.146 0 .269-.035.368-.106s.185-.205.258-.403a6.262 6.262 0 01.078-.25c.021-.063.039-.123.055-.18s.021-.091.016-.102l-1.605-3.993h.791l.869 2.333c.042.12.084.245.125.376l.117.368c.037.136.073.266.11.392h.016l.117-.392.117-.368c.041-.13.084-.256.125-.376l.838-2.333h.76l-1.785 4.588c-.089.219-.176.399-.262.54s-.178.252-.274.333c-.097.081-.201.136-.313.164s-.236.043-.372.043z"></path></svg>